<svg width="10" height="10" viewBox="0 0 10 10" fill="none" xmlns="http://www.w3.org/2000/svg">
<path d="M4.61505 2.64526V0.640752C4.61505 0.427615 4.78505 0.25 5.00005 0.25C5.19255 0.25 5.35564 0.399246 5.38148 0.58829L5.38505 0.640752V2.64526L7.775 2.64541C8.965 2.64541 9.94267 3.61989 9.99757 4.8352L10 4.94304V7.46269C10 8.68652 9.05633 9.6911 7.88401 9.7475L7.78 9.75H2.22C1.03 9.75 0.0570449 8.78039 0.00241889 7.56063L0 7.45237L0 4.93788C0 3.71405 0.938955 2.70461 2.111 2.64792L2.215 2.64541H4.615V5.84661L3.815 5.02049C3.665 4.8656 3.42 4.8656 3.27 5.02049C3.195 5.09794 3.16 5.20121 3.16 5.30447C3.16 5.38295 3.1824 5.46474 3.22976 5.53396L3.27 5.58328L4.725 7.09094C4.795 7.16839 4.895 7.2097 5 7.2097C5.08333 7.2097 5.16667 7.18101 5.23264 7.12663L5.27 7.09094L6.725 5.58328C6.875 5.42839 6.875 5.17539 6.725 5.02049C6.58864 4.87968 6.37376 4.86688 6.22312 4.98209L6.18 5.02049L5.385 5.84661V2.64541L4.61505 2.64526Z" fill="#6F7888"/>
</svg>
