<svg width="12" height="12" viewBox="0 0 12 12" fill="none" xmlns="http://www.w3.org/2000/svg">
<path d="M11.0731 2.60095L7.26406 6.41751C7.11684 6.56509 6.9359 6.6746 6.73688 6.73657L5.9275 7.00751C5.73542 7.06175 5.53234 7.0638 5.3392 7.01344C5.14606 6.96307 4.96985 6.86212 4.82871 6.72099C4.68758 6.57985 4.58662 6.40363 4.53626 6.21049C4.4859 6.01736 4.48794 5.81428 4.54219 5.6222L4.81313 4.81282C4.87492 4.61386 4.98421 4.43292 5.13156 4.28563L8.94812 0.475947C8.98311 0.441002 9.00694 0.396468 9.01662 0.347975C9.02629 0.299483 9.02136 0.249212 9.00247 0.203519C8.98357 0.157826 8.95154 0.118764 8.91044 0.0912724C8.86934 0.0637809 8.82101 0.0490952 8.77156 0.0490723H2.25C1.78587 0.0490723 1.34075 0.233447 1.01256 0.561635C0.684375 0.889824 0.5 1.33494 0.5 1.79907V9.29907C0.5 9.7632 0.684375 10.2083 1.01256 10.5365C1.34075 10.8647 1.78587 11.0491 2.25 11.0491H9.75C10.2141 11.0491 10.6592 10.8647 10.9874 10.5365C11.3156 10.2083 11.5 9.7632 11.5 9.29907V2.77751C11.5 2.72806 11.4853 2.67973 11.4578 2.63863C11.4303 2.59753 11.3912 2.56551 11.3456 2.54661C11.2999 2.52771 11.2496 2.52278 11.2011 2.53246C11.1526 2.54213 11.1081 2.56596 11.0731 2.60095Z" fill="#000B1E"/>
</svg>
