<svg width="49" height="40" viewBox="0 0 49 40" fill="none" xmlns="http://www.w3.org/2000/svg">
<path fill-rule="evenodd" clip-rule="evenodd" d="M10.5295 28.3665V29.2692H10.5342C10.5342 43.5769 38.3595 43.5769 38.3595 29.2692V28.3665C40.819 30.1657 43.947 30.3704 48.8889 28.5404C45.0169 25.9479 43.3787 22.6349 41.9613 19.768C40.3493 16.508 39.0225 13.8247 35.0203 13.4325C34.6912 12.2924 34.4571 11.0193 34.4002 9.54559C33.9153 -3.18186 14.9739 -3.18186 14.4887 9.54559C14.4318 11.0193 14.1976 12.2924 13.8686 13.4325C9.86618 13.8235 8.53938 16.5072 6.92724 19.7677C5.50964 22.6348 3.87164 25.948 0 28.5404C4.94177 30.3724 8.07004 30.1657 10.5295 28.3665ZM21.0839 8.12706C21.0839 7.48026 20.5439 6.95626 19.8774 6.95626C19.213 6.95626 18.671 7.48026 18.671 8.12706C18.671 8.77399 19.2108 9.29799 19.8774 9.29799C20.5439 9.29799 21.0839 8.77399 21.0839 8.12706ZM29.0062 6.95626C29.6727 6.95626 30.2127 7.48026 30.2127 8.12706C30.2127 8.77399 29.6706 9.29799 29.0062 9.29799C28.3396 9.29799 27.7996 8.77399 27.7996 8.12706C27.7996 7.48026 28.3396 6.95626 29.0062 6.95626ZM28.7488 11.1381L25.9646 9.50466L25.962 9.50666C26.2364 1.03464 31.8408 4.89914 32.2479 11.1033C32.4389 13.9955 33.2797 15.9796 34.0382 17.7696C34.7297 19.4013 35.3527 20.8716 35.3527 22.7213V27.8897C35.3527 40.0685 13.526 40.0685 13.526 27.8897V22.7213C13.526 20.8939 14.1535 19.4377 14.8462 17.8299C15.6238 16.0251 16.4836 14.0293 16.6308 11.1033C16.9008 5.74455 22.9758 0.097271 22.9167 9.50666L20.1346 11.1381L24.4416 16.3943L28.7488 11.1381Z" fill="url(#paint0_linear_4024_2883)"/>
<defs>
<linearGradient id="paint0_linear_4024_2883" x1="48.8889" y1="40" x2="0.52207" y2="-3.31706" gradientUnits="userSpaceOnUse">
<stop stop-color="#0253E2"/>
<stop offset="1" stop-color="#00C0E2"/>
</linearGradient>
</defs>
</svg>
