<svg width="21" height="18" viewBox="0 0 21 18" fill="none" xmlns="http://www.w3.org/2000/svg">
<path fill-rule="evenodd" clip-rule="evenodd" d="M15.3902 0C16.7312 0 18.0212 0.53 18.9702 1.481C19.9202 2.43 20.4512 3.71 20.4512 5.05V12.95C20.4512 15.74 18.1812 18 15.3902 18H5.51117C2.72017 18 0.451172 15.74 0.451172 12.95V5.05C0.451172 2.26 2.71017 0 5.51117 0H15.3902ZM16.9812 6.54L17.0612 6.46C17.3002 6.17 17.3002 5.75 17.0502 5.46C16.9112 5.311 16.7202 5.22 16.5212 5.2C16.3112 5.189 16.1112 5.26 15.9602 5.4L11.4512 9C10.8712 9.481 10.0402 9.481 9.45117 9L4.95117 5.4C4.64017 5.17 4.21017 5.2 3.95117 5.47C3.68117 5.74 3.65117 6.17 3.88017 6.47L4.01117 6.6L8.56117 10.15C9.12117 10.59 9.80017 10.83 10.5112 10.83C11.2202 10.83 11.9112 10.59 12.4702 10.15L16.9812 6.54Z" fill="#3F84FF"/>
</svg>
