<svg width="25" height="25" viewBox="0 0 25 25" fill="none" xmlns="http://www.w3.org/2000/svg">
<path d="M17.3103 6.60902L4.55422 19.3965L3.78125 21.2678L5.6525 20.4948L18.44 7.73871L17.3103 6.60902ZM19.8627 4.05715L19.31 4.60934L20.4397 5.73902L20.9923 5.18637C21.1374 5.04125 21.2188 4.84449 21.2188 4.63934C21.2188 4.43418 21.1374 4.23742 20.9923 4.0923L20.9572 4.05715C20.8853 3.98527 20.8 3.92826 20.7061 3.88936C20.6122 3.85047 20.5116 3.83044 20.4099 3.83044C20.3083 3.83044 20.2076 3.85047 20.1137 3.88936C20.0198 3.92826 19.9345 3.98527 19.8627 4.05715Z" stroke="white" stroke-width="2.0625" stroke-linecap="round" stroke-linejoin="round"/>
</svg>
