<svg width="32" height="32" viewBox="0 0 32 32" fill="none" xmlns="http://www.w3.org/2000/svg">
<rect width="32" height="32" rx="4" fill="#ECF3FF"/>
<path d="M24.25 11.7857C24.25 11.1605 24.0017 10.561 23.5596 10.1189C23.1176 9.67686 22.518 9.42852 21.8929 9.42852H21.3036V8.85581C21.3036 8.5387 21.0598 8.26652 20.7426 8.25068C20.663 8.24684 20.5833 8.25922 20.5086 8.28707C20.4338 8.31491 20.3655 8.35764 20.3078 8.41267C20.25 8.4677 20.204 8.53388 20.1726 8.6072C20.1412 8.68052 20.125 8.75946 20.125 8.83923V9.42852H11.875V8.85581C11.875 8.5387 11.6312 8.26652 11.3141 8.25068C11.2344 8.24684 11.1548 8.25922 11.08 8.28707C11.0053 8.31491 10.9369 8.35764 10.8792 8.41267C10.8214 8.4677 10.7755 8.53388 10.7441 8.6072C10.7126 8.68052 10.6964 8.75946 10.6964 8.83923V9.42852H10.1071C9.48199 9.42852 8.88244 9.67686 8.44039 10.1189C7.99834 10.561 7.75 11.1605 7.75 11.7857V12.2276C7.75 12.2667 7.76552 12.3042 7.79315 12.3318C7.82078 12.3594 7.85825 12.3749 7.89732 12.3749H24.1027C24.1418 12.3749 24.1792 12.3594 24.2069 12.3318C24.2345 12.3042 24.25 12.2667 24.25 12.2276V11.7857ZM7.75 22.3928C7.75 23.018 7.99834 23.6175 8.44039 24.0596C8.88244 24.5016 9.48199 24.7499 10.1071 24.7499H21.8929C22.518 24.7499 23.1176 24.5016 23.5596 24.0596C24.0017 23.6175 24.25 23.018 24.25 22.3928V13.664C24.25 13.6347 24.2384 13.6066 24.2176 13.5859C24.1969 13.5652 24.1688 13.5535 24.1395 13.5535H7.86049C7.83119 13.5535 7.80308 13.5652 7.78236 13.5859C7.76164 13.6066 7.75 13.6347 7.75 13.664V22.3928ZM20.4196 14.7321C20.5945 14.7321 20.7654 14.7839 20.9107 14.8811C21.0561 14.9782 21.1694 15.1162 21.2363 15.2778C21.3032 15.4393 21.3207 15.617 21.2866 15.7885C21.2525 15.9599 21.1683 16.1174 21.0447 16.241C20.9211 16.3647 20.7636 16.4489 20.5921 16.483C20.4206 16.5171 20.2429 16.4996 20.0814 16.4327C19.9199 16.3658 19.7818 16.2525 19.6847 16.1071C19.5876 15.9617 19.5357 15.7908 19.5357 15.616C19.5357 15.3816 19.6288 15.1568 19.7946 14.991C19.9604 14.8252 20.1852 14.7321 20.4196 14.7321ZM20.4196 17.6785C20.5945 17.6785 20.7654 17.7304 20.9107 17.8275C21.0561 17.9246 21.1694 18.0627 21.2363 18.2242C21.3032 18.3857 21.3207 18.5634 21.2866 18.7349C21.2525 18.9064 21.1683 19.0639 21.0447 19.1875C20.9211 19.3111 20.7636 19.3953 20.5921 19.4294C20.4206 19.4635 20.2429 19.446 20.0814 19.3791C19.9199 19.3122 19.7818 19.1989 19.6847 19.0535C19.5876 18.9082 19.5357 18.7373 19.5357 18.5624C19.5357 18.328 19.6288 18.1032 19.7946 17.9374C19.9604 17.7716 20.1852 17.6785 20.4196 17.6785ZM17.4732 14.7321C17.648 14.7321 17.8189 14.7839 17.9643 14.8811C18.1097 14.9782 18.223 15.1162 18.2899 15.2778C18.3568 15.4393 18.3743 15.617 18.3402 15.7885C18.3061 15.9599 18.2219 16.1174 18.0982 16.241C17.9746 16.3647 17.8171 16.4489 17.6457 16.483C17.4742 16.5171 17.2965 16.4996 17.135 16.4327C16.9734 16.3658 16.8354 16.2525 16.7383 16.1071C16.6411 15.9617 16.5893 15.7908 16.5893 15.616C16.5893 15.3816 16.6824 15.1568 16.8482 14.991C17.014 14.8252 17.2388 14.7321 17.4732 14.7321ZM17.4732 17.6785C17.648 17.6785 17.8189 17.7304 17.9643 17.8275C18.1097 17.9246 18.223 18.0627 18.2899 18.2242C18.3568 18.3857 18.3743 18.5634 18.3402 18.7349C18.3061 18.9064 18.2219 19.0639 18.0982 19.1875C17.9746 19.3111 17.8171 19.3953 17.6457 19.4294C17.4742 19.4635 17.2965 19.446 17.135 19.3791C16.9734 19.3122 16.8354 19.1989 16.7383 19.0535C16.6411 18.9082 16.5893 18.7373 16.5893 18.5624C16.5893 18.328 16.6824 18.1032 16.8482 17.9374C17.014 17.7716 17.2388 17.6785 17.4732 17.6785ZM17.4732 20.6249C17.648 20.6249 17.8189 20.6768 17.9643 20.7739C18.1097 20.871 18.223 21.0091 18.2899 21.1706C18.3568 21.3321 18.3743 21.5099 18.3402 21.6813C18.3061 21.8528 18.2219 22.0103 18.0982 22.1339C17.9746 22.2575 17.8171 22.3417 17.6457 22.3758C17.4742 22.4099 17.2965 22.3924 17.135 22.3255C16.9734 22.2586 16.8354 22.1453 16.7383 22C16.6411 21.8546 16.5893 21.6837 16.5893 21.5089C16.5893 21.2744 16.6824 21.0496 16.8482 20.8838C17.014 20.7181 17.2388 20.6249 17.4732 20.6249ZM14.5268 17.6785C14.7016 17.6785 14.8725 17.7304 15.0179 17.8275C15.1632 17.9246 15.2765 18.0627 15.3434 18.2242C15.4103 18.3857 15.4278 18.5634 15.3937 18.7349C15.3596 18.9064 15.2754 19.0639 15.1518 19.1875C15.0282 19.3111 14.8707 19.3953 14.6992 19.4294C14.5278 19.4635 14.35 19.446 14.1885 19.3791C14.027 19.3122 13.889 19.1989 13.7918 19.0535C13.6947 18.9082 13.6429 18.7373 13.6429 18.5624C13.6429 18.328 13.736 18.1032 13.9018 17.9374C14.0675 17.7716 14.2924 17.6785 14.5268 17.6785ZM14.5268 20.6249C14.7016 20.6249 14.8725 20.6768 15.0179 20.7739C15.1632 20.871 15.2765 21.0091 15.3434 21.1706C15.4103 21.3321 15.4278 21.5099 15.3937 21.6813C15.3596 21.8528 15.2754 22.0103 15.1518 22.1339C15.0282 22.2575 14.8707 22.3417 14.6992 22.3758C14.5278 22.4099 14.35 22.3924 14.1885 22.3255C14.027 22.2586 13.889 22.1453 13.7918 22C13.6947 21.8546 13.6429 21.6837 13.6429 21.5089C13.6429 21.2744 13.736 21.0496 13.9018 20.8838C14.0675 20.7181 14.2924 20.6249 14.5268 20.6249ZM11.5804 17.6785C11.7552 17.6785 11.9261 17.7304 12.0714 17.8275C12.2168 17.9246 12.3301 18.0627 12.397 18.2242C12.4639 18.3857 12.4814 18.5634 12.4473 18.7349C12.4132 18.9064 12.329 19.0639 12.2054 19.1875C12.0818 19.3111 11.9243 19.3953 11.7528 19.4294C11.5813 19.4635 11.4036 19.446 11.2421 19.3791C11.0806 19.3122 10.9425 19.1989 10.8454 19.0535C10.7483 18.9082 10.6964 18.7373 10.6964 18.5624C10.6964 18.328 10.7896 18.1032 10.9553 17.9374C11.1211 17.7716 11.3459 17.6785 11.5804 17.6785ZM11.5804 20.6249C11.7552 20.6249 11.9261 20.6768 12.0714 20.7739C12.2168 20.871 12.3301 21.0091 12.397 21.1706C12.4639 21.3321 12.4814 21.5099 12.4473 21.6813C12.4132 21.8528 12.329 22.0103 12.2054 22.1339C12.0818 22.2575 11.9243 22.3417 11.7528 22.3758C11.5813 22.4099 11.4036 22.3924 11.2421 22.3255C11.0806 22.2586 10.9425 22.1453 10.8454 22C10.7483 21.8546 10.6964 21.6837 10.6964 21.5089C10.6964 21.2744 10.7896 21.0496 10.9553 20.8838C11.1211 20.7181 11.3459 20.6249 11.5804 20.6249Z" fill="#3F84FF"/>
</svg>
