<svg width="19" height="18" viewBox="0 0 19 18" fill="none" xmlns="http://www.w3.org/2000/svg">
<path d="M18 1.75C18.4142 1.75 18.75 1.41421 18.75 1C18.75 0.585786 18.4142 0.25 18 0.25V1.75ZM0 1.75H18V0.25H0V1.75Z" fill="#6F7888"/>
<path d="M18 9.75C18.4142 9.75 18.75 9.41421 18.75 9C18.75 8.58579 18.4142 8.25 18 8.25V9.75ZM0 9.75H18V8.25H0V9.75Z" fill="#6F7888"/>
<path d="M8 17.75C8.41421 17.75 8.75 17.4142 8.75 17C8.75 16.5858 8.41421 16.25 8 16.25V17.75ZM0 17.75H8V16.25H0V17.75Z" fill="#6F7888"/>
</svg>
