<svg width="138" height="40" viewBox="0 0 138 40" fill="none" xmlns="http://www.w3.org/2000/svg">
<path fill-rule="evenodd" clip-rule="evenodd" d="M10.5295 28.3665V29.2692H10.5342C10.5342 43.5769 38.3595 43.5769 38.3595 29.2692V28.3665C40.819 30.1657 43.947 30.3704 48.8889 28.5404C45.0169 25.9479 43.3787 22.6349 41.9613 19.768C40.3493 16.508 39.0225 13.8247 35.0203 13.4325C34.6912 12.2924 34.4571 11.0193 34.4002 9.54559C33.9153 -3.18186 14.9739 -3.18186 14.4887 9.54559C14.4318 11.0193 14.1976 12.2924 13.8686 13.4325C9.86618 13.8235 8.53938 16.5072 6.92724 19.7677C5.50964 22.6348 3.87164 25.948 0 28.5404C4.94177 30.3724 8.07004 30.1657 10.5295 28.3665ZM21.0839 8.12706C21.0839 7.48026 20.5439 6.95626 19.8774 6.95626C19.213 6.95626 18.671 7.48026 18.671 8.12706C18.671 8.77399 19.2108 9.29799 19.8774 9.29799C20.5439 9.29799 21.0839 8.77399 21.0839 8.12706ZM29.0062 6.95626C29.6727 6.95626 30.2127 7.48026 30.2127 8.12706C30.2127 8.77399 29.6706 9.29799 29.0062 9.29799C28.3396 9.29799 27.7996 8.77399 27.7996 8.12706C27.7996 7.48026 28.3396 6.95626 29.0062 6.95626ZM28.7488 11.1381L25.9646 9.50466L25.962 9.50666C26.2364 1.03464 31.8408 4.89914 32.2479 11.1033C32.4389 13.9955 33.2797 15.9796 34.0382 17.7696C34.7297 19.4013 35.3527 20.8716 35.3527 22.7213V27.8897C35.3527 40.0685 13.526 40.0685 13.526 27.8897V22.7213C13.526 20.8939 14.1535 19.4377 14.8462 17.8299C15.6238 16.0251 16.4836 14.0293 16.6308 11.1033C16.9008 5.74455 22.9758 0.097271 22.9167 9.50666L20.1346 11.1381L24.4416 16.3943L28.7488 11.1381Z" fill="url(#paint0_linear_4057_1268)"/>
<path fill-rule="evenodd" clip-rule="evenodd" d="M79.4308 33.7945C80.2424 33.7945 80.8849 33.5732 81.3584 33.1304C81.8318 32.6877 82.0685 32.1651 82.0685 31.5625C82.0685 31.0215 81.9333 30.4649 81.6628 29.8931C81.3921 29.3213 80.9864 28.6541 80.4453 27.8917L72.7717 16.8977L79.4308 10.5892C80.2546 9.80213 80.6666 9.00893 80.6666 8.2096C80.6666 7.5456 80.4237 6.98293 79.938 6.52181C79.4522 6.06065 78.8158 5.83008 78.0288 5.83008C77.4262 5.83008 76.9436 5.9592 76.5808 6.21745C76.218 6.47569 75.7784 6.87533 75.2618 7.4164L64.5077 18.6317V9.1504C64.5077 8.03133 64.2526 7.19813 63.7422 6.65093C63.2318 6.10369 62.5648 5.83008 61.7408 5.83008C60.9046 5.83008 60.2436 6.10677 59.7578 6.66016C59.2721 7.2136 59.0293 8.0436 59.0293 9.1504V29.2567C59.0293 30.1176 59.0477 30.7755 59.0846 31.2305C59.1214 31.6855 59.226 32.0852 59.3981 32.4295C59.6318 32.8476 59.9638 33.1796 60.3942 33.4256C60.8246 33.6715 61.2736 33.7945 61.7408 33.7945C62.5525 33.7945 63.2165 33.5209 63.733 32.9736C64.2496 32.4264 64.5077 31.5871 64.5077 30.4557V24.8665L68.9902 20.5685L75.4648 30.5295C75.723 30.9723 76.0182 31.4641 76.3502 32.0052C76.6822 32.5463 77.0881 32.9797 77.5677 33.3056C78.0473 33.6316 78.6682 33.7945 79.4308 33.7945ZM88.1854 33.7945C88.9233 33.7945 89.532 33.5363 90.0116 33.0197C90.4912 32.5032 90.731 31.7408 90.731 30.7324V16.1784C90.731 15.2807 90.4912 14.5797 90.0116 14.0755C89.532 13.5713 88.9233 13.3192 88.1854 13.3192C87.4476 13.3192 86.8481 13.5713 86.3869 14.0755C85.9257 14.5797 85.6952 15.3299 85.6952 16.326V30.7324C85.6952 31.7163 85.9257 32.4725 86.3869 33.0013C86.8481 33.5301 87.4476 33.7945 88.1854 33.7945ZM99.3197 10.3217C98.8277 10.7583 98.2436 10.9765 97.5673 10.9765C96.8664 10.9765 96.2668 10.7613 95.7688 10.3309C95.2708 9.90053 95.0217 9.29187 95.0217 8.5048C95.0217 7.79147 95.2769 7.20427 95.7872 6.7432C96.2976 6.28201 96.8909 6.05143 97.5673 6.05143C98.219 6.05143 98.797 6.26049 99.3012 6.67867C99.8054 7.09667 100.057 7.70547 100.057 8.5048C100.057 9.27947 99.8116 9.8852 99.3197 10.3217ZM97.512 33.7945C98.2497 33.7945 98.8585 33.5363 99.3381 33.0197C99.8177 32.5032 100.057 31.7408 100.057 30.7324V16.1784C100.057 15.2807 99.8177 14.5797 99.3381 14.0755C98.8585 13.5713 98.2497 13.3192 97.512 13.3192C96.7741 13.3192 96.1746 13.5713 95.7134 14.0755C95.2522 14.5797 95.0217 15.3299 95.0217 16.326V30.7324C95.0217 31.7163 95.2522 32.4725 95.7134 33.0013C96.1746 33.5301 96.7741 33.7945 97.512 33.7945ZM108.628 33.0289C108.148 33.5393 107.539 33.7945 106.802 33.7945C106.076 33.7945 105.48 33.5363 105.012 33.0197C104.545 32.5032 104.311 31.7408 104.311 30.7324V16.7133C104.311 14.4505 105.129 13.3192 106.765 13.3192C107.601 13.3192 108.203 13.5836 108.572 14.1124C108.941 14.6412 109.144 15.4221 109.181 16.4551C109.784 15.4221 110.402 14.6412 111.035 14.1124C111.668 13.5836 112.514 13.3192 113.571 13.3192C114.629 13.3192 115.656 13.5836 116.652 14.1124C117.648 14.6412 118.146 15.3421 118.146 16.2153C118.146 16.8301 117.934 17.3375 117.51 17.7371C117.085 18.1368 116.627 18.3365 116.135 18.3365C115.951 18.3365 115.505 18.2228 114.798 17.9953C114.091 17.7679 113.467 17.6541 112.926 17.6541C112.188 17.6541 111.585 17.8477 111.118 18.2352C110.651 18.6225 110.288 19.1975 110.03 19.9599C109.771 20.7223 109.593 21.6292 109.495 22.6807C109.396 23.7321 109.347 25.0141 109.347 26.5267V30.7324C109.347 31.7531 109.107 32.5187 108.628 33.0289ZM134.906 33.7945C135.522 33.7945 136.071 33.5824 136.558 33.1581C137.043 32.7339 137.286 32.2635 137.286 31.7469C137.286 31.4519 137.13 30.7908 136.815 29.764C136.502 28.7372 136.346 27.7503 136.346 26.8033C136.358 25.7949 136.367 24.8788 136.372 24.0549C136.379 23.2309 136.382 22.2288 136.382 21.0481C136.382 19.1789 136.12 17.6787 135.598 16.5473C135.075 15.416 134.18 14.5889 132.914 14.0663C131.647 13.5436 129.907 13.2824 127.694 13.2824C125.714 13.2824 124.06 13.5529 122.732 14.094C121.404 14.6351 120.426 15.3237 119.799 16.16C119.172 16.9961 118.858 17.8569 118.858 18.7424C118.858 19.3081 119.064 19.7723 119.476 20.1351C119.888 20.4979 120.377 20.6792 120.943 20.6792C121.57 20.6792 121.979 20.5655 122.169 20.338C122.36 20.1105 122.686 19.6401 123.147 18.9269C123.608 18.2136 124.162 17.6787 124.807 17.322C125.452 16.9655 126.415 16.7871 127.694 16.7871C129.182 16.7871 130.163 17.0976 130.636 17.7187C131.11 18.3396 131.376 19.3143 131.439 20.6424C130.38 20.9497 129.4 21.2111 128.496 21.4263C127.592 21.6415 126.507 21.8783 125.24 22.1365C123.974 22.3948 123.18 22.5608 122.86 22.6345C121.336 22.9665 120.137 23.6184 119.264 24.5899C118.391 25.5613 117.954 26.7357 117.954 28.1131C117.954 29.1337 118.219 30.0807 118.747 30.9537C119.276 31.8269 120.029 32.5187 121.007 33.0289C121.985 33.5393 123.119 33.7945 124.411 33.7945C125.824 33.7945 127.1 33.5577 128.238 33.0843C129.375 32.6108 130.552 31.9007 131.771 30.9537C132.336 31.8761 132.871 32.5801 133.375 33.0659C133.879 33.5516 134.39 33.7945 134.906 33.7945ZM123.875 29.6903C124.454 30.2252 125.21 30.4927 126.144 30.4927C127.14 30.4927 128.059 30.2744 128.902 29.8377C129.744 29.4012 130.363 28.8387 130.756 28.15C131.211 27.3875 131.439 26.1332 131.439 24.3869V23.6676C130.7 23.9381 129.627 24.224 128.219 24.5253C126.811 24.8265 125.836 25.0479 125.296 25.1893C124.755 25.3308 124.238 25.6075 123.746 26.0195C123.255 26.4313 123.008 27.0063 123.008 27.7441C123.008 28.5065 123.298 29.1553 123.875 29.6903Z" fill="#000B1E"/>
<path d="M88.2408 10.9764C88.9172 10.9764 89.5013 10.7581 89.9932 10.3216C90.485 9.88504 90.731 9.27931 90.731 8.50464C90.731 7.70531 90.4789 7.09651 89.9748 6.67851C89.4705 6.26034 88.8926 6.05127 88.2408 6.05127C87.5645 6.05127 86.9712 6.28186 86.4608 6.74304C85.9504 7.20411 85.6953 7.79131 85.6953 8.50464C85.6953 9.29171 85.9442 9.90038 86.4424 10.3308C86.9404 10.7612 87.5398 10.9764 88.2408 10.9764Z" fill="#3F84FF"/>
<defs>
<linearGradient id="paint0_linear_4057_1268" x1="48.8889" y1="40" x2="0.52207" y2="-3.31706" gradientUnits="userSpaceOnUse">
<stop stop-color="#0253E2"/>
<stop offset="1" stop-color="#00C0E2"/>
</linearGradient>
</defs>
</svg>
