<svg width="49" height="41" viewBox="0 0 49 41" fill="none" xmlns="http://www.w3.org/2000/svg">
<path fill-rule="evenodd" clip-rule="evenodd" d="M10.5295 28.8665V29.7692H10.5342C10.5342 44.0769 38.3595 44.0769 38.3595 29.7692V28.8665C40.819 30.6657 43.947 30.8704 48.8889 29.0404C45.0169 26.4479 43.3787 23.1349 41.9613 20.268C40.3493 17.008 39.0225 14.3247 35.0203 13.9325C34.6912 12.7924 34.4571 11.5193 34.4002 10.0456C33.9153 -2.68186 14.9739 -2.68186 14.4887 10.0456C14.4318 11.5193 14.1976 12.7924 13.8686 13.9325C9.86618 14.3235 8.53938 17.0072 6.92724 20.2677C5.50964 23.1348 3.87164 26.448 0 29.0404C4.94177 30.8724 8.07004 30.6657 10.5295 28.8665ZM21.0839 8.62706C21.0839 7.98026 20.5439 7.45626 19.8774 7.45626C19.213 7.45626 18.671 7.98026 18.671 8.62706C18.671 9.27399 19.2108 9.79799 19.8774 9.79799C20.5439 9.79799 21.0839 9.27399 21.0839 8.62706ZM29.0062 7.45626C29.6727 7.45626 30.2127 7.98026 30.2127 8.62706C30.2127 9.27399 29.6706 9.79799 29.0062 9.79799C28.3396 9.79799 27.7996 9.27399 27.7996 8.62706C27.7996 7.98026 28.3396 7.45626 29.0062 7.45626ZM28.7488 11.6381L25.9646 10.0047L25.962 10.0067C26.2364 1.53464 31.8408 5.39914 32.2479 11.6033C32.4389 14.4955 33.2797 16.4796 34.0382 18.2696C34.7297 19.9013 35.3527 21.3716 35.3527 23.2213V28.3897C35.3527 40.5685 13.526 40.5685 13.526 28.3897V23.2213C13.526 21.3939 14.1535 19.9377 14.8462 18.3299C15.6238 16.5251 16.4836 14.5293 16.6308 11.6033C16.9008 6.24455 22.9758 0.597271 22.9167 10.0067L20.1346 11.6381L24.4416 16.8943L28.7488 11.6381Z" fill="#000B1E"/>
</svg>
