<svg width="16" height="18" viewBox="0 0 16 18" fill="none" xmlns="http://www.w3.org/2000/svg">
<path d="M11.1924 12.9159L11.2083 12.9248L11.2208 12.9117C11.4514 12.6706 11.7284 12.4788 12.0351 12.3478C12.3418 12.2168 12.6719 12.1493 13.0055 12.1494C13.5227 12.1494 14.027 12.3113 14.4475 12.6124C14.8681 12.9135 15.1838 13.3388 15.3503 13.8285C15.5169 14.3182 15.5259 14.8477 15.3762 15.3428C15.2265 15.8379 14.9255 16.2737 14.5155 16.5891C14.1055 16.9044 13.6071 17.0834 13.0901 17.1011C12.5732 17.1187 12.0637 16.9741 11.6332 16.6874C11.2026 16.4008 10.8726 15.9865 10.6895 15.5028C10.5064 15.019 10.4793 14.4901 10.6121 13.9902L10.6168 13.9726L10.6009 13.9637L4.81969 10.711L4.80386 10.7021L4.79129 10.7152C4.44919 11.0719 4.0082 11.3181 3.52504 11.4221C3.04188 11.5261 2.53866 11.4831 2.08011 11.2988C1.62156 11.1144 1.22865 10.7971 0.951931 10.3876C0.675214 9.97811 0.527344 9.49518 0.527344 9.00096C0.527344 8.50674 0.675214 8.02382 0.951931 7.61433C1.22865 7.20483 1.62156 6.8875 2.08011 6.70315C2.53866 6.51879 3.04188 6.47585 3.52504 6.57985C4.0082 6.68385 4.44919 6.93003 4.79129 7.28672L4.80386 7.29983L4.81969 7.29092L10.6009 4.03818L10.6168 4.02928L10.6121 4.01173C10.4575 3.43126 10.5198 2.81434 10.7874 2.27654C11.055 1.73873 11.5095 1.31694 12.0657 1.09018C12.622 0.863426 13.2419 0.847262 13.8092 1.04472C14.3765 1.24218 14.8524 1.63971 15.1476 2.16284C15.4429 2.68597 15.5373 3.2988 15.4131 3.88653C15.289 4.47426 14.9548 4.99656 14.4732 5.35558C13.9916 5.7146 13.3956 5.88571 12.7969 5.83685C12.1982 5.78799 11.6378 5.52252 11.2208 5.09016L11.2082 5.07712L11.1924 5.086L5.41116 8.33874L5.39533 8.34765L5.40001 8.3652C5.51094 8.78178 5.51094 9.22014 5.40001 9.63673L5.39533 9.65428L5.41116 9.66319L11.1924 12.9159Z" fill="#000B1E" stroke="#000B1E" stroke-width="0.046875"/>
</svg>
